# xmcd CD database file
#
# Track frame offsets:
#	150
#	26013
#	49054
#	65354
#	92374
#	111932
#	134217
#	157967
#	178854
#	194138
#	218447
#	239867
#	259850
#	279287
#	299346
#	317314
#
# Disc length: 4421 seconds
#
# Revision: 0
# Processed by: cddbd v1.5.1PL2 Copyright (c) Steve Scherf et al.
# Submitted via: CDex 1.51
#
DISCID=f1114310
DTITLE=DIANE ARKENSTONE - The Best Of Diane Arkenstone
DYEAR=2005
DGENRE=New Age
TTITLE0=The Secret Garden
TTITLE1=Under The Blue Sky
TTITLE2=Avalon
TTITLE3=Rhythm Of The Forest
TTITLE4=Om Shanti
TTITLE5=River Of Creation
TTITLE6=Voice of the Sea
TTITLE7=The Hills at Sunset
TTITLE8=All is Bright
TTITLE9=Canyon Dreams
TTITLE10=Freedom of Movement
TTITLE11=Across the Sands of Time
TTITLE12=Kiva Ceremony
TTITLE13=Precious Waters
TTITLE14=The River Winds Through the Night
TTITLE15=The Gray Havens
EXTD=YEAR: 2005
EXTT0=
EXTT1=
EXTT2=
EXTT3=
EXTT4=
EXTT5=
EXTT6=
EXTT7=
EXTT8=
EXTT9=
EXTT10=
EXTT11=
EXTT12=
EXTT13=
EXTT14=
EXTT15=
PLAYORDER=
